<svg width="27" height="24" viewBox="0 0 27 24" fill="none" xmlns="http://www.w3.org/2000/svg">
<path d="M5.76761 22.4709L21.1476 22.4709C23.802 22.4709 25.9539 20.3392 25.9539 17.7096L25.9539 9.13942L0.961362 9.13942L0.961361 17.7096C0.961361 20.3392 3.11319 22.4709 5.76761 22.4709Z" fill="#B0938F"/>
<path fill-rule="evenodd" clip-rule="evenodd" d="M2.61779 21.3061C1.8853 20.4704 1.44192 19.3794 1.44193 18.1858L1.44193 9.61555L25.9538 9.61556V9.13944L0.961304 9.13943L0.961304 17.7097C0.961304 19.1456 1.60299 20.4331 2.61779 21.3061Z" fill="#FFF3DC"/>
<path d="M21.1476 3.42596L5.76755 3.42596C3.11314 3.42596 0.961304 5.55764 0.961304 8.1872L0.961304 9.13945L25.9538 9.13945V8.1872C25.9538 5.55764 23.802 3.42596 21.1476 3.42596Z" fill="#686666"/>
<path fill-rule="evenodd" clip-rule="evenodd" d="M5.76755 3.42596H21.1476C22.597 3.42596 23.8967 4.06161 24.7779 5.06688C23.9344 4.34127 22.833 3.90207 21.6282 3.90207H6.24817C3.59376 3.90207 1.44193 6.03375 1.44193 8.66331V9.13945H0.961304V8.1872C0.961304 5.55764 3.11314 3.42596 5.76755 3.42596Z" fill="#999494"/>
<path d="M5.7675 2.47372L21.1475 2.47372C24.3328 2.47372 26.915 5.03174 26.915 8.18721V9.13946H25.9537V8.18721C25.9537 5.55765 23.8019 3.42597 21.1475 3.42597L5.7675 3.42597C3.11308 3.42597 0.96125 5.55765 0.96125 8.18721L0.96125 9.13946H0L0 8.18721C0 5.03174 2.5822 2.47372 5.7675 2.47372Z" fill="#433D3D"/>
<path d="M21.1475 23.4232L5.76754 23.4232C2.58224 23.4232 4.60021e-05 20.8651 4.62806e-05 17.7097L4.70369e-05 9.13944L0.961297 9.13944L0.961297 17.7097C0.961296 20.3392 3.11313 22.4709 5.76754 22.4709L21.1475 22.4709C23.802 22.4709 25.9538 20.3392 25.9538 17.7097L25.9538 9.13945L26.915 9.13945L26.915 17.7097C26.915 20.8651 24.3328 23.4232 21.1475 23.4232Z" fill="#826E47"/>
<path d="M5.76747 12.9484C5.76747 13.4743 5.3371 13.9007 4.80622 13.9007C4.27534 13.9007 3.84497 13.4743 3.84497 12.9484C3.84497 12.4225 4.27534 11.9962 4.80622 11.9962C5.3371 11.9962 5.76747 12.4225 5.76747 12.9484Z" fill="#B0938F"/>
<path fill-rule="evenodd" clip-rule="evenodd" d="M6.72879 12.9484C6.72879 14.0003 5.86806 14.8529 4.80629 14.8529C3.74452 14.8529 2.88379 14.0003 2.88379 12.9484C2.88379 11.8966 3.74452 11.0439 4.80629 11.0439C5.86806 11.0439 6.72879 11.8966 6.72879 12.9484ZM4.80629 13.9007C5.33717 13.9007 5.76754 13.4744 5.76754 12.9484C5.76754 12.4225 5.33717 11.9962 4.80629 11.9962C4.27541 11.9962 3.84504 12.4225 3.84504 12.9484C3.84504 13.4744 4.27541 13.9007 4.80629 13.9007Z" fill="#826E47"/>
<path d="M5.76747 18.6619C5.76747 19.1878 5.3371 19.6142 4.80622 19.6142C4.27534 19.6142 3.84497 19.1878 3.84497 18.6619C3.84497 18.136 4.27534 17.7097 4.80622 17.7097C5.3371 17.7097 5.76747 18.136 5.76747 18.6619Z" fill="#B0938F"/>
<path fill-rule="evenodd" clip-rule="evenodd" d="M6.72879 18.6619C6.72879 19.7137 5.86806 20.5664 4.80629 20.5664C3.74452 20.5664 2.88379 19.7137 2.88379 18.6619C2.88379 17.6101 3.74452 16.7574 4.80629 16.7574C5.86806 16.7574 6.72879 17.6101 6.72879 18.6619ZM4.80629 19.6142C5.33717 19.6142 5.76754 19.1878 5.76754 18.6619C5.76754 18.136 5.33717 17.7097 4.80629 17.7097C4.27541 17.7097 3.84504 18.136 3.84504 18.6619C3.84504 19.1878 4.27541 19.6142 4.80629 19.6142Z" fill="#826E47"/>
<path d="M17.3025 12.9484C17.3025 13.4743 16.8721 13.9007 16.3413 13.9007C15.8104 13.9007 15.38 13.4743 15.38 12.9484C15.38 12.4225 15.8104 11.9962 16.3413 11.9962C16.8721 11.9962 17.3025 12.4225 17.3025 12.9484Z" fill="#B0938F"/>
<path fill-rule="evenodd" clip-rule="evenodd" d="M18.2638 12.9484C18.2638 14.0003 17.4031 14.8529 16.3413 14.8529C15.2796 14.8529 14.4188 14.0003 14.4188 12.9484C14.4188 11.8966 15.2796 11.0439 16.3413 11.0439C17.4031 11.0439 18.2638 11.8966 18.2638 12.9484ZM16.3413 13.9007C16.8722 13.9007 17.3026 13.4744 17.3026 12.9484C17.3026 12.4225 16.8722 11.9962 16.3413 11.9962C15.8104 11.9962 15.3801 12.4225 15.3801 12.9484C15.3801 13.4744 15.8104 13.9007 16.3413 13.9007Z" fill="#826E47"/>
<path d="M17.3025 18.6619C17.3025 19.1878 16.8721 19.6142 16.3413 19.6142C15.8104 19.6142 15.38 19.1878 15.38 18.6619C15.38 18.136 15.8104 17.7097 16.3413 17.7097C16.8721 17.7097 17.3025 18.136 17.3025 18.6619Z" fill="#B0938F"/>
<path fill-rule="evenodd" clip-rule="evenodd" d="M18.2638 18.6619C18.2638 19.7137 17.4031 20.5664 16.3413 20.5664C15.2796 20.5664 14.4188 19.7137 14.4188 18.6619C14.4188 17.6101 15.2796 16.7574 16.3413 16.7574C17.4031 16.7574 18.2638 17.6101 18.2638 18.6619ZM16.3413 19.6142C16.8722 19.6142 17.3026 19.1878 17.3026 18.6619C17.3026 18.136 16.8722 17.7097 16.3413 17.7097C15.8104 17.7097 15.3801 18.136 15.3801 18.6619C15.3801 19.1878 15.8104 19.6142 16.3413 19.6142Z" fill="#826E47"/>
<path d="M11.535 12.9484C11.535 13.4743 11.1047 13.9007 10.5738 13.9007C10.0429 13.9007 9.61255 13.4743 9.61255 12.9484C9.61255 12.4225 10.0429 11.9962 10.5738 11.9962C11.1047 11.9962 11.535 12.4225 11.535 12.9484Z" fill="#B0938F"/>
<path fill-rule="evenodd" clip-rule="evenodd" d="M12.4962 12.9484C12.4962 14.0003 11.6355 14.8529 10.5737 14.8529C9.51198 14.8529 8.65125 14.0003 8.65125 12.9484C8.65125 11.8966 9.51198 11.0439 10.5737 11.0439C11.6355 11.0439 12.4962 11.8966 12.4962 12.9484ZM10.5737 13.9007C11.1046 13.9007 11.535 13.4744 11.535 12.9484C11.535 12.4225 11.1046 11.9962 10.5737 11.9962C10.0429 11.9962 9.61249 12.4225 9.61249 12.9484C9.61249 13.4744 10.0429 13.9007 10.5737 13.9007Z" fill="#826E47"/>
<path d="M11.535 18.6619C11.535 19.1878 11.1047 19.6142 10.5738 19.6142C10.0429 19.6142 9.61255 19.1878 9.61255 18.6619C9.61255 18.136 10.0429 17.7097 10.5738 17.7097C11.1047 17.7097 11.535 18.136 11.535 18.6619Z" fill="#B0938F"/>
<path fill-rule="evenodd" clip-rule="evenodd" d="M12.4962 18.6619C12.4962 19.7137 11.6355 20.5664 10.5737 20.5664C9.51198 20.5664 8.65125 19.7137 8.65125 18.6619C8.65125 17.6101 9.51198 16.7574 10.5737 16.7574C11.6355 16.7574 12.4962 17.6101 12.4962 18.6619ZM10.5737 19.6142C11.1046 19.6142 11.535 19.1878 11.535 18.6619C11.535 18.136 11.1046 17.7097 10.5737 17.7097C10.0429 17.7097 9.61249 18.136 9.61249 18.6619C9.61249 19.1878 10.0429 19.6142 10.5737 19.6142Z" fill="#826E47"/>
<path d="M23.0701 12.9484C23.0701 13.4743 22.6397 13.9007 22.1088 13.9007C21.5779 13.9007 21.1476 13.4743 21.1476 12.9484C21.1476 12.4225 21.5779 11.9962 22.1088 11.9962C22.6397 11.9962 23.0701 12.4225 23.0701 12.9484Z" fill="#B0938F"/>
<path fill-rule="evenodd" clip-rule="evenodd" d="M24.0313 12.9484C24.0313 14.0003 23.1705 14.8529 22.1088 14.8529C21.047 14.8529 20.1863 14.0003 20.1863 12.9484C20.1863 11.8966 21.047 11.0439 22.1088 11.0439C23.1705 11.0439 24.0313 11.8966 24.0313 12.9484ZM22.1088 13.9007C22.6397 13.9007 23.07 13.4744 23.07 12.9484C23.07 12.4225 22.6397 11.9962 22.1088 11.9962C21.5779 11.9962 21.1475 12.4225 21.1475 12.9484C21.1475 13.4744 21.5779 13.9007 22.1088 13.9007Z" fill="#826E47"/>
<path d="M23.0701 18.6619C23.0701 19.1878 22.6397 19.6142 22.1088 19.6142C21.5779 19.6142 21.1476 19.1878 21.1476 18.6619C21.1476 18.136 21.5779 17.7097 22.1088 17.7097C22.6397 17.7097 23.0701 18.136 23.0701 18.6619Z" fill="#F55B54"/>
<path fill-rule="evenodd" clip-rule="evenodd" d="M24.0313 18.6619C24.0313 19.7137 23.1705 20.5664 22.1088 20.5664C21.047 20.5664 20.1863 19.7137 20.1863 18.6619C20.1863 17.6101 21.047 16.7574 22.1088 16.7574C23.1705 16.7574 24.0313 17.6101 24.0313 18.6619ZM22.1088 19.6142C22.6397 19.6142 23.07 19.1878 23.07 18.6619C23.07 18.136 22.6397 17.7097 22.1088 17.7097C21.5779 17.7097 21.1475 18.136 21.1475 18.6619C21.1475 19.1878 21.5779 19.6142 22.1088 19.6142Z" fill="#A83C37"/>
<path fill-rule="evenodd" clip-rule="evenodd" d="M5.68264 12.5565C5.56197 12.5024 5.42802 12.4723 5.28697 12.4723C4.75608 12.4723 4.32572 12.8986 4.32572 13.4246C4.32572 13.5643 4.3561 13.697 4.41067 13.8165C4.07715 13.6671 3.84509 13.3346 3.84509 12.9484C3.84509 12.4225 4.27546 11.9962 4.80634 11.9962C5.19618 11.9962 5.53181 12.2261 5.68264 12.5565Z" fill="#FFF3DC"/>
<path fill-rule="evenodd" clip-rule="evenodd" d="M5.68264 18.2699C5.56197 18.2159 5.42802 18.1858 5.28697 18.1858C4.75608 18.1858 4.32572 18.6121 4.32572 19.138C4.32572 19.2778 4.3561 19.4105 4.41067 19.53C4.07715 19.3806 3.84509 19.0481 3.84509 18.6619C3.84509 18.136 4.27546 17.7097 4.80634 17.7097C5.19618 17.7097 5.53181 17.9395 5.68264 18.2699Z" fill="#FFF3DC"/>
<path fill-rule="evenodd" clip-rule="evenodd" d="M11.4501 12.5565C11.3294 12.5024 11.1955 12.4723 11.0544 12.4723C10.5235 12.4723 10.0932 12.8986 10.0932 13.4246C10.0932 13.5643 10.1236 13.697 10.1781 13.8165C9.84461 13.6671 9.61255 13.3346 9.61255 12.9484C9.61255 12.4225 10.0429 11.9962 10.5738 11.9962C10.9636 11.9962 11.2993 12.2261 11.4501 12.5565Z" fill="#FFF3DC"/>
<path fill-rule="evenodd" clip-rule="evenodd" d="M11.4501 18.2699C11.3294 18.2159 11.1955 18.1858 11.0544 18.1858C10.5235 18.1858 10.0932 18.6121 10.0932 19.138C10.0932 19.2778 10.1236 19.4105 10.1781 19.53C9.84461 19.3806 9.61255 19.0481 9.61255 18.6619C9.61255 18.136 10.0429 17.7097 10.5738 17.7097C10.9636 17.7097 11.2993 17.9395 11.4501 18.2699Z" fill="#FFF3DC"/>
<path fill-rule="evenodd" clip-rule="evenodd" d="M17.2176 12.5565C17.0969 12.5024 16.9629 12.4723 16.8219 12.4723C16.291 12.4723 15.8606 12.8986 15.8606 13.4246C15.8606 13.5643 15.891 13.697 15.9456 13.8165C15.6121 13.6671 15.38 13.3346 15.38 12.9484C15.38 12.4225 15.8104 11.9962 16.3413 11.9962C16.7311 11.9962 17.0667 12.2261 17.2176 12.5565Z" fill="#FFF3DC"/>
<path fill-rule="evenodd" clip-rule="evenodd" d="M22.9851 12.5565C22.8645 12.5024 22.7305 12.4723 22.5895 12.4723C22.0586 12.4723 21.6282 12.8986 21.6282 13.4246C21.6282 13.5643 21.6586 13.697 21.7132 13.8165C21.3796 13.6671 21.1476 13.3346 21.1476 12.9484C21.1476 12.4225 21.5779 11.9962 22.1088 11.9962C22.4987 11.9962 22.8343 12.2261 22.9851 12.5565Z" fill="#FFF3DC"/>
<path fill-rule="evenodd" clip-rule="evenodd" d="M22.9851 18.2699C22.8645 18.2159 22.7305 18.1858 22.5895 18.1858C22.0586 18.1858 21.6282 18.6121 21.6282 19.138C21.6282 19.2778 21.6586 19.4105 21.7132 19.53C21.3796 19.3806 21.1476 19.0481 21.1476 18.6619C21.1476 18.136 21.5779 17.7097 22.1088 17.7097C22.4987 17.7097 22.8343 17.9395 22.9851 18.2699Z" fill="#FF8B86"/>
<path fill-rule="evenodd" clip-rule="evenodd" d="M17.2176 18.2699C17.0969 18.2159 16.9629 18.1858 16.8219 18.1858C16.291 18.1858 15.8606 18.6121 15.8606 19.138C15.8606 19.2778 15.891 19.4105 15.9456 19.53C15.6121 19.3806 15.38 19.0481 15.38 18.6619C15.38 18.136 15.8104 17.7097 16.3413 17.7097C16.7311 17.7097 17.0667 17.9395 17.2176 18.2699Z" fill="#FFF3DC"/>
<path d="M8.17068 4.37822C8.17068 5.43004 7.30995 6.28271 6.24818 6.28271C5.18642 6.28271 4.32568 5.43004 4.32568 4.37822C4.32568 3.3264 5.18642 2.47372 6.24818 2.47372C7.30995 2.47372 8.17068 3.3264 8.17068 4.37822Z" fill="#433D3D"/>
<path d="M12.977 4.37822C12.977 5.43004 12.1162 6.28271 11.0545 6.28271C9.99269 6.28271 9.13196 5.43004 9.13196 4.37822C9.13196 3.3264 9.99269 2.47372 11.0545 2.47372C12.1162 2.47372 12.977 3.3264 12.977 4.37822Z" fill="#433D3D"/>
<path d="M17.7832 4.37822C17.7832 5.43004 16.9225 6.28271 15.8607 6.28271C14.799 6.28271 13.9382 5.43004 13.9382 4.37822C13.9382 3.3264 14.799 2.47372 15.8607 2.47372C16.9225 2.47372 17.7832 3.3264 17.7832 4.37822Z" fill="#433D3D"/>
<path d="M22.5894 4.37822C22.5894 5.43004 21.7287 6.28271 20.6669 6.28271C19.6051 6.28271 18.7444 5.43004 18.7444 4.37822C18.7444 3.3264 19.6051 2.47372 20.6669 2.47372C21.7287 2.47372 22.5894 3.3264 22.5894 4.37822Z" fill="#433D3D"/>
<path fill-rule="evenodd" clip-rule="evenodd" d="M20.6669 0.569214C21.1978 0.569214 21.6282 0.99555 21.6282 1.52146V4.3782C21.6282 4.90412 21.1978 5.33045 20.6669 5.33045C20.1361 5.33045 19.7057 4.90412 19.7057 4.3782V1.52146C19.7057 0.99555 20.1361 0.569214 20.6669 0.569214Z" fill="#292323"/>
<path fill-rule="evenodd" clip-rule="evenodd" d="M15.8607 0.569214C16.3915 0.569214 16.8219 0.99555 16.8219 1.52146V4.3782C16.8219 4.90412 16.3915 5.33045 15.8607 5.33045C15.3298 5.33045 14.8994 4.90412 14.8994 4.3782V1.52146C14.8994 0.99555 15.3298 0.569214 15.8607 0.569214Z" fill="#292323"/>
<path fill-rule="evenodd" clip-rule="evenodd" d="M11.0545 0.569214C11.5854 0.569214 12.0158 0.99555 12.0158 1.52146V4.3782C12.0158 4.90412 11.5854 5.33045 11.0545 5.33045C10.5236 5.33045 10.0933 4.90412 10.0933 4.3782V1.52146C10.0933 0.99555 10.5236 0.569214 11.0545 0.569214Z" fill="#292323"/>
<path fill-rule="evenodd" clip-rule="evenodd" d="M6.24824 0.569214C6.77912 0.569214 7.20949 0.99555 7.20949 1.52146V4.3782C7.20949 4.90412 6.77912 5.33045 6.24824 5.33045C5.71735 5.33045 5.28699 4.90412 5.28699 4.3782V1.52146C5.28699 0.99555 5.71735 0.569214 6.24824 0.569214Z" fill="#292323"/>
<path fill-rule="evenodd" clip-rule="evenodd" d="M6.2482 1.52145C6.51364 1.52145 6.72883 1.73462 6.72883 1.99758V2.94983C6.72883 3.21278 6.51364 3.42595 6.2482 3.42595C5.98276 3.42595 5.76758 3.21278 5.76758 2.94983V1.99758C5.76758 1.73462 5.98276 1.52145 6.2482 1.52145Z" fill="#4E4C4C"/>
<path fill-rule="evenodd" clip-rule="evenodd" d="M11.0545 1.52145C11.3199 1.52145 11.5351 1.73462 11.5351 1.99758V2.94983C11.5351 3.21278 11.3199 3.42595 11.0545 3.42595C10.789 3.42595 10.5739 3.21278 10.5739 2.94983V1.99758C10.5739 1.73462 10.789 1.52145 11.0545 1.52145Z" fill="#4E4C4C"/>
<path fill-rule="evenodd" clip-rule="evenodd" d="M15.8606 1.52145C16.1261 1.52145 16.3413 1.73462 16.3413 1.99758V2.94983C16.3413 3.21278 16.1261 3.42595 15.8606 3.42595C15.5952 3.42595 15.38 3.21278 15.38 2.94983V1.99758C15.38 1.73462 15.5952 1.52145 15.8606 1.52145Z" fill="#4E4C4C"/>
<path fill-rule="evenodd" clip-rule="evenodd" d="M20.6669 1.52145C20.9323 1.52145 21.1475 1.73462 21.1475 1.99758V2.94983C21.1475 3.21278 20.9323 3.42595 20.6669 3.42595C20.4015 3.42595 20.1863 3.21278 20.1863 2.94983V1.99758C20.1863 1.73462 20.4015 1.52145 20.6669 1.52145Z" fill="#4E4C4C"/>
<path d="M6.72883 1.99758C6.72883 2.26053 6.51364 2.4737 6.2482 2.4737C5.98276 2.4737 5.76758 2.26053 5.76758 1.99758C5.76758 1.73462 5.98276 1.52145 6.2482 1.52145C6.51364 1.52145 6.72883 1.73462 6.72883 1.99758Z" fill="#989494"/>
<path d="M11.5351 1.99758C11.5351 2.26053 11.3199 2.4737 11.0545 2.4737C10.789 2.4737 10.5739 2.26053 10.5739 1.99758C10.5739 1.73462 10.789 1.52145 11.0545 1.52145C11.3199 1.52145 11.5351 1.73462 11.5351 1.99758Z" fill="#989494"/>
<path d="M16.3413 1.99758C16.3413 2.26053 16.1261 2.4737 15.8606 2.4737C15.5952 2.4737 15.38 2.26053 15.38 1.99758C15.38 1.73462 15.5952 1.52145 15.8606 1.52145C16.1261 1.52145 16.3413 1.73462 16.3413 1.99758Z" fill="#989494"/>
<path d="M21.1475 1.99758C21.1475 2.26053 20.9323 2.4737 20.6669 2.4737C20.4015 2.4737 20.1863 2.26053 20.1863 1.99758C20.1863 1.73462 20.4015 1.52145 20.6669 1.52145C20.9323 1.52145 21.1475 1.73462 21.1475 1.99758Z" fill="#989494"/>
<rect x="0.961304" y="8.18719" width="24.9925" height="0.952247" fill="#433D3D"/>
</svg>
